<svg width="195" height="48" viewBox="0 0 195 48" fill="none" xmlns="http://www.w3.org/2000/svg">
<path d="M6.7682 23L0.80229 1.18182H3.48695L8.04661 18.9517H8.25968L12.9046 1.18182H15.8875L20.5324 18.9517H20.7455L25.3051 1.18182H27.9898L22.0239 23H19.2966L14.4813 5.61364H14.3108L9.49547 23H6.7682ZM33.9237 1.18182V23H31.2817V1.18182H33.9237ZM39.2211 23V1.18182H41.8632V20.6562H52.0052V23H39.2211ZM62.8291 23H56.0961V1.18182H63.1274C65.2439 1.18182 67.055 1.61861 68.5606 2.49219C70.0663 3.35866 71.2204 4.60511 72.023 6.23153C72.8256 7.85085 73.2268 9.78977 73.2268 12.0483C73.2268 14.321 72.822 16.2777 72.0123 17.9183C71.2027 19.5518 70.0237 20.8089 68.4754 21.6896C66.9271 22.5632 65.045 23 62.8291 23ZM58.7382 20.6562H62.6586C64.4626 20.6562 65.9577 20.3082 67.1437 19.6122C68.3298 18.9162 69.214 17.9254 69.7964 16.6399C70.3788 15.3544 70.67 13.8239 70.67 12.0483C70.67 10.2869 70.3824 8.7706 69.8071 7.49929C69.2318 6.22088 68.3724 5.24077 67.229 4.55895C66.0855 3.87003 64.6615 3.52557 62.9569 3.52557H58.7382V20.6562ZM77.6586 23V1.18182H85.2865C86.8064 1.18182 88.0599 1.4446 89.0471 1.97017C90.0344 2.48864 90.7694 3.18821 91.2524 4.06889C91.7354 4.94247 91.9768 5.91193 91.9768 6.97727C91.9768 7.91477 91.8099 8.68892 91.4761 9.29972C91.1494 9.91051 90.7162 10.3935 90.1764 10.7486C89.6437 11.1037 89.0649 11.3665 88.4399 11.5369V11.75C89.1075 11.7926 89.7787 12.027 90.4534 12.4531C91.1281 12.8793 91.6927 13.4901 92.1473 14.2855C92.6018 15.081 92.8291 16.054 92.8291 17.2045C92.8291 18.2983 92.5805 19.282 92.0834 20.1555C91.5862 21.0291 90.8014 21.7216 89.729 22.233C88.6565 22.7443 87.2609 23 85.5422 23H77.6586ZM80.3007 20.6562H85.5422C87.268 20.6562 88.4932 20.3224 89.2176 19.6548C89.9491 18.9801 90.3149 18.1634 90.3149 17.2045C90.3149 16.4659 90.1267 15.7841 89.7503 15.1591C89.3738 14.527 88.8376 14.0227 88.1416 13.6463C87.4456 13.2628 86.6217 13.071 85.67 13.071H80.3007V20.6562ZM80.3007 10.7699H85.2013C85.9967 10.7699 86.714 10.6136 87.3532 10.3011C87.9996 9.98864 88.5109 9.5483 88.8873 8.98011C89.2709 8.41193 89.4626 7.74432 89.4626 6.97727C89.4626 6.01847 89.1288 5.20526 88.4612 4.53764C87.7936 3.86293 86.7354 3.52557 85.2865 3.52557H80.3007V10.7699ZM97.1704 23V1.18182H110.338V3.52557H99.8124V10.8977H109.656V13.2415H99.8124V20.6562H110.508V23H97.1704ZM115.1 23V1.18182H122.472C124.177 1.18182 125.576 1.47301 126.67 2.0554C127.763 2.63068 128.573 3.42258 129.099 4.43111C129.624 5.43963 129.887 6.58665 129.887 7.87216C129.887 9.15767 129.624 10.2976 129.099 11.2919C128.573 12.2862 127.767 13.0675 126.68 13.6357C125.594 14.1967 124.205 14.4773 122.515 14.4773H116.549V12.0909H122.43C123.594 12.0909 124.532 11.9205 125.242 11.5795C125.959 11.2386 126.478 10.7557 126.797 10.1307C127.124 9.49858 127.288 8.74574 127.288 7.87216C127.288 6.99858 127.124 6.23508 126.797 5.58168C126.471 4.92827 125.949 4.42401 125.231 4.06889C124.514 3.70668 123.566 3.52557 122.387 3.52557H117.742V23H115.1ZM125.37 13.1989L130.739 23H127.671L122.387 13.1989H125.37ZM134.29 23V1.18182H141.662C143.366 1.18182 144.765 1.47301 145.859 2.0554C146.953 2.63068 147.763 3.42258 148.288 4.43111C148.814 5.43963 149.076 6.58665 149.076 7.87216C149.076 9.15767 148.814 10.2976 148.288 11.2919C147.763 12.2862 146.956 13.0675 145.87 13.6357C144.783 14.1967 143.395 14.4773 141.704 14.4773H135.738V12.0909H141.619C142.784 12.0909 143.721 11.9205 144.432 11.5795C145.149 11.2386 145.667 10.7557 145.987 10.1307C146.314 9.49858 146.477 8.74574 146.477 7.87216C146.477 6.99858 146.314 6.23508 145.987 5.58168C145.66 4.92827 145.138 4.42401 144.421 4.06889C143.704 3.70668 142.755 3.52557 141.576 3.52557H136.932V23H134.29ZM144.559 13.1989L149.929 23H146.861L141.576 13.1989H144.559ZM156.121 1.18182V23H153.479V1.18182H156.121ZM161.418 23V1.18182H174.586V3.52557H164.06V10.8977H173.904V13.2415H164.06V20.6562H174.756V23H161.418ZM191.28 6.63636C191.152 5.55682 190.634 4.71875 189.725 4.12216C188.815 3.52557 187.7 3.22727 186.379 3.22727C185.413 3.22727 184.568 3.38352 183.844 3.69602C183.127 4.00852 182.565 4.43821 182.161 4.98508C181.763 5.53196 181.564 6.15341 181.564 6.84943C181.564 7.43182 181.703 7.93253 181.979 8.35156C182.264 8.76349 182.626 9.10795 183.066 9.38494C183.506 9.65483 183.968 9.87855 184.451 10.0561C184.934 10.2266 185.378 10.3651 185.783 10.4716L187.999 11.0682C188.567 11.2173 189.199 11.4233 189.895 11.6861C190.598 11.9489 191.269 12.3075 191.908 12.7621C192.555 13.2095 193.087 13.7848 193.506 14.4879C193.926 15.1911 194.135 16.054 194.135 17.0767C194.135 18.2557 193.826 19.321 193.208 20.2727C192.597 21.2244 191.703 21.9808 190.524 22.5419C189.352 23.103 187.928 23.3835 186.252 23.3835C184.689 23.3835 183.336 23.1314 182.193 22.6271C181.056 22.1229 180.161 21.4197 179.508 20.5178C178.862 19.6158 178.496 18.5682 178.411 17.375H181.138C181.209 18.1989 181.486 18.8807 181.969 19.4205C182.459 19.9531 183.077 20.3509 183.823 20.6136C184.575 20.8693 185.385 20.9972 186.252 20.9972C187.26 20.9972 188.166 20.8338 188.968 20.5071C189.771 20.1733 190.406 19.7116 190.875 19.1222C191.344 18.5256 191.578 17.8295 191.578 17.0341C191.578 16.3097 191.376 15.7202 190.971 15.2656C190.566 14.8111 190.033 14.4418 189.373 14.1577C188.712 13.8736 187.999 13.625 187.232 13.4119L184.547 12.6449C182.842 12.1548 181.493 11.4553 180.499 10.5462C179.504 9.63707 179.007 8.44744 179.007 6.97727C179.007 5.75568 179.337 4.69034 179.998 3.78125C180.666 2.86506 181.56 2.15483 182.683 1.65057C183.812 1.1392 185.073 0.883522 186.465 0.883522C187.871 0.883522 189.121 1.13565 190.215 1.63991C191.308 2.13707 192.175 2.81889 192.814 3.68537C193.46 4.55185 193.801 5.53551 193.837 6.63636H191.28ZM81.9293 38.5341L80.4237 38.9602C80.329 38.7093 80.1893 38.4654 80.0046 38.2287C79.8247 37.9872 79.5785 37.7884 79.266 37.6321C78.9535 37.4759 78.5534 37.3977 78.0657 37.3977C77.3981 37.3977 76.8417 37.5516 76.3967 37.8594C75.9563 38.1624 75.7362 38.5483 75.7362 39.017C75.7362 39.4337 75.8877 39.7628 76.1907 40.0043C76.4937 40.2457 76.9672 40.447 77.6112 40.608L79.2305 41.0057C80.2058 41.2424 80.9326 41.6046 81.4109 42.0923C81.8891 42.5753 82.1282 43.1979 82.1282 43.9602C82.1282 44.5852 81.9483 45.1439 81.5884 45.6364C81.2333 46.1288 80.7362 46.517 80.0969 46.8011C79.4577 47.0852 78.7144 47.2273 77.8668 47.2273C76.7541 47.2273 75.8332 46.9858 75.104 46.5028C74.3749 46.0199 73.9132 45.3144 73.7191 44.3864L75.31 43.9886C75.4615 44.5758 75.748 45.0161 76.1694 45.3097C76.5955 45.6032 77.1519 45.75 77.8384 45.75C78.6197 45.75 79.2399 45.5843 79.6992 45.2528C80.1632 44.9167 80.3952 44.5142 80.3952 44.0455C80.3952 43.6667 80.2627 43.3494 79.9975 43.0938C79.7324 42.8333 79.3252 42.6392 78.7759 42.5114L76.9577 42.0852C75.9587 41.8485 75.2248 41.4815 74.756 40.9844C74.292 40.4825 74.06 39.8551 74.06 39.1023C74.06 38.4867 74.2328 37.9422 74.5785 37.4688C74.9289 36.9953 75.4047 36.6236 76.006 36.3537C76.6121 36.0838 77.2987 35.9489 78.0657 35.9489C79.1452 35.9489 79.9928 36.1856 80.6083 36.6591C81.2286 37.1326 81.6689 37.7576 81.9293 38.5341ZM89.2251 47.2273C88.174 47.2273 87.2673 46.9953 86.505 46.5312C85.7474 46.0625 85.1626 45.4091 84.7507 44.571C84.3435 43.7282 84.1399 42.7481 84.1399 41.6307C84.1399 40.5133 84.3435 39.5284 84.7507 38.6761C85.1626 37.8191 85.7356 37.1515 86.4695 36.6733C87.2081 36.1903 88.0698 35.9489 89.0547 35.9489C89.6229 35.9489 90.1839 36.0436 90.7379 36.233C91.2919 36.4223 91.7962 36.7301 92.2507 37.1562C92.7053 37.5777 93.0675 38.1364 93.3374 38.8324C93.6072 39.5284 93.7422 40.3854 93.7422 41.4034V42.1136H85.3331V40.6648H92.0376C92.0376 40.0492 91.9145 39.5 91.6683 39.017C91.4268 38.5341 91.0812 38.1529 90.6314 37.8736C90.1863 37.5942 89.6607 37.4545 89.0547 37.4545C88.3871 37.4545 87.8094 37.6203 87.3217 37.9517C86.8388 38.2784 86.4671 38.7045 86.2067 39.2301C85.9463 39.7557 85.8161 40.3191 85.8161 40.9205V41.8864C85.8161 42.7102 85.9581 43.4086 86.2422 43.9815C86.531 44.5497 86.9311 44.983 87.4425 45.2812C87.9538 45.5748 88.5481 45.7216 89.2251 45.7216C89.6655 45.7216 90.0632 45.66 90.4183 45.5369C90.7782 45.4091 91.0883 45.2197 91.3487 44.9688C91.6091 44.7131 91.8104 44.3958 91.9524 44.017L93.5717 44.4716C93.4013 45.0208 93.1148 45.5038 92.7124 45.9205C92.3099 46.3324 91.8127 46.6544 91.2209 46.8864C90.629 47.1136 89.9638 47.2273 89.2251 47.2273ZM97.968 32.4545V47H96.2919V32.4545H97.968ZM102.714 32.4545V47H101.038V32.4545H102.714ZM110.358 47.2273C109.307 47.2273 108.4 46.9953 107.638 46.5312C106.88 46.0625 106.295 45.4091 105.884 44.571C105.476 43.7282 105.273 42.7481 105.273 41.6307C105.273 40.5133 105.476 39.5284 105.884 38.6761C106.295 37.8191 106.868 37.1515 107.602 36.6733C108.341 36.1903 109.203 35.9489 110.188 35.9489C110.756 35.9489 111.317 36.0436 111.871 36.233C112.425 36.4223 112.929 36.7301 113.384 37.1562C113.838 37.5777 114.2 38.1364 114.47 38.8324C114.74 39.5284 114.875 40.3854 114.875 41.4034V42.1136H106.466V40.6648H113.17C113.17 40.0492 113.047 39.5 112.801 39.017C112.56 38.5341 112.214 38.1529 111.764 37.8736C111.319 37.5942 110.794 37.4545 110.188 37.4545C109.52 37.4545 108.942 37.6203 108.455 37.9517C107.972 38.2784 107.6 38.7045 107.339 39.2301C107.079 39.7557 106.949 40.3191 106.949 40.9205V41.8864C106.949 42.7102 107.091 43.4086 107.375 43.9815C107.664 44.5497 108.064 44.983 108.575 45.2812C109.087 45.5748 109.681 45.7216 110.358 45.7216C110.798 45.7216 111.196 45.66 111.551 45.5369C111.911 45.4091 112.221 45.2197 112.482 44.9688C112.742 44.7131 112.943 44.3958 113.085 44.017L114.705 44.4716C114.534 45.0208 114.248 45.5038 113.845 45.9205C113.443 46.3324 112.946 46.6544 112.354 46.8864C111.762 47.1136 111.097 47.2273 110.358 47.2273ZM117.425 47V36.0909H119.044V37.7386H119.158C119.357 37.1989 119.716 36.7609 120.237 36.4247C120.758 36.0885 121.345 35.9205 121.999 35.9205C122.122 35.9205 122.276 35.9228 122.46 35.9276C122.645 35.9323 122.785 35.9394 122.879 35.9489V37.6534C122.822 37.6392 122.692 37.6179 122.489 37.5895C122.29 37.5563 122.079 37.5398 121.857 37.5398C121.326 37.5398 120.853 37.651 120.436 37.8736C120.024 38.0914 119.697 38.3944 119.456 38.7827C119.219 39.1662 119.101 39.6042 119.101 40.0966V47H117.425Z" fill="white"/>
</svg>
